# xmcd
#
# Track frame offsets:
# 150
# 23219
# 49082
# 62104
# 82377
# 110667
# 133546
# 159891
# 174443
# 196290
# 214193
# 232944
# 249748
#
# Disc length: 3562 seconds
#
# Revision: 0
# Processed by: cddbd v1.5PL3 Copyright (c) Steve Scherf et al.
# Submitted via: Audion 3.0.2 (http://www.panic.com/audion/)
#
DISCID=b30de80d
DTITLE=? - ?
DYEAR=1900
DGENRE=
TTITLE0=????
TTITLE1=????
TTITLE2=????
TTITLE3=????
TTITLE4=????
TTITLE5=????
TTITLE6=????
TTITLE7=????
TTITLE8=????
TTITLE9=????
TTITLE10=????
TTITLE11=????
TTITLE12=????
EXTD=
EXTT0=
EXTT1=
EXTT2=
EXTT3=
EXTT4=
EXTT5=
EXTT6=
EXTT7=
EXTT8=
EXTT9=
EXTT10=
EXTT11=
EXTT12=
PLAYORDER=
